<svg width="30" height="28" viewBox="0 0 30 28" fill="none" xmlns="http://www.w3.org/2000/svg">
<g filter="url(#filter0_d)">
<path fill-rule="evenodd" clip-rule="evenodd" d="M6 5C6 3.34315 7.34315 2 9 2H17C18.6569 2 20 3.34315 20 5V6.20359L17.8016 8.40201C17.6192 8.15798 17.3281 8 17 8H9C8.44772 8 8 8.44771 8 9C8 9.55229 8.44772 10 9 10H16.2036L14.1863 12.0173C14.1259 12.0059 14.0637 12 14 12H9C8.44772 12 8 12.4477 8 13C8 13.5523 8.44772 14 9 14H12.9996L12.7738 14.9517C12.4788 16.1952 13.3971 17.3313 14.5793 17.4106C14.7744 17.4238 14.9766 17.4081 15.1818 17.3594L16.6256 17.0169C16.9862 16.9313 17.316 16.7472 17.5781 16.4851L20 14.0632V15C20 16.6569 18.6569 18 17 18H9C7.34315 18 6 16.6569 6 15V5ZM22 12.0629V15C22 17.7614 19.7614 20 17 20H9C6.23858 20 4 17.7614 4 15V5C4 2.23858 6.23858 0 9 0H17C19.5773 0 21.6991 1.94997 21.9706 4.45505C22.693 4.16201 23.5519 4.30842 24.1377 4.89428L25.239 5.99551C26.02 6.77656 26.02 8.04289 25.239 8.82394L22 12.0629ZM14.7201 15.4134L16.1636 15.0709L23.8247 7.40972L22.7235 6.30849L21.7225 7.30955C21.7174 7.31483 21.7123 7.32006 21.7071 7.32524L15.0627 13.9697L14.7201 15.4134ZM8 5C8 4.44772 8.44772 4 9 4H17C17.5523 4 18 4.44772 18 5C18 5.55228 17.5523 6 17 6H9C8.44772 6 8 5.55228 8 5Z" fill="#6E81A0"/>
</g>
<defs>
<filter id="filter0_d" x="0" y="0" width="29.8247" height="28" filterUnits="userSpaceOnUse" color-interpolation-filters="sRGB">
<feFlood flood-opacity="0" result="BackgroundImageFix"/>
<feColorMatrix in="SourceAlpha" type="matrix" values="0 0 0 0 0 0 0 0 0 0 0 0 0 0 0 0 0 0 127 0"/>
<feOffset dy="4"/>
<feGaussianBlur stdDeviation="2"/>
<feColorMatrix type="matrix" values="0 0 0 0 0 0 0 0 0 0 0 0 0 0 0 0 0 0 0.25 0"/>
<feBlend mode="normal" in2="BackgroundImageFix" result="effect1_dropShadow"/>
<feBlend mode="normal" in="SourceGraphic" in2="effect1_dropShadow" result="shape"/>
</filter>
</defs>
</svg>
